<?xml version="1.0" standalone="no"?>
<!DOCTYPE svg PUBLIC "-//W3C//DTD SVG 20010904//EN"
 "http://www.w3.org/TR/2001/REC-SVG-20010904/DTD/svg10.dtd">
<svg version="1.0" xmlns="http://www.w3.org/2000/svg"
 width="335.000000pt" height="91.000000pt" viewBox="0 0 335.000000 91.000000"
 preserveAspectRatio="xMidYMid meet">

<g transform="translate(0.000000,91.000000) scale(0.100000,-0.100000)"
fill="#000000" stroke="none">
<path d="M494 678 c-12 -5 -27 -21 -33 -34 -9 -21 -15 -24 -49 -18 -46 7 -89
-12 -122 -53 -17 -22 -21 -37 -18 -74 5 -44 3 -46 -25 -55 -17 -5 -32 -14 -34
-19 -3 -11 195 -90 203 -82 3 2 -17 12 -43 22 -27 10 -68 27 -93 38 l-45 20
30 13 c41 18 168 17 235 -1 30 -8 56 -15 58 -15 1 0 0 23 -4 50 -8 61 1 63 58
13 50 -46 77 -103 78 -161 0 -128 -118 -167 -277 -92 -36 16 -68 28 -70 26 -7
-6 116 -63 166 -76 109 -29 202 35 201 137 -1 45 -22 107 -44 132 -14 15 -14
26 -5 74 14 68 7 101 -31 138 -23 23 -37 29 -72 28 -24 0 -53 -5 -64 -11z m66
-18 c-8 -5 -22 -10 -31 -10 -8 0 -25 -9 -38 -21 -32 -30 -39 -16 -8 15 18 18
37 26 59 26 25 0 29 -3 18 -10z m-188 -66 c-33 -23 -54 -70 -47 -105 4 -16 2
-29 -3 -29 -13 0 -22 25 -22 62 0 34 47 88 76 88 16 0 15 -2 -4 -16z"/>
<path d="M1597 618 c-8 -13 -22 -46 -32 -75 -15 -49 -18 -52 -44 -47 -36 7
-83 -16 -111 -56 -72 -101 -23 -203 65 -136 25 19 35 23 35 13 0 -27 28 -41
55 -29 30 14 33 32 5 32 -29 0 -26 28 21 165 22 66 41 126 42 134 3 24 -21 23
-36 -1z m-67 -167 c0 -28 -50 -120 -71 -132 -39 -21 -52 21 -25 85 25 60 96
95 96 47z"/>
<path d="M1675 598 c-4 -24 -22 -89 -41 -146 -37 -113 -41 -144 -19 -162 17
-14 51 -5 59 16 5 12 2 15 -9 10 -31 -11 -27 26 14 150 44 130 48 167 19 172
-12 2 -18 -7 -23 -40z"/>
<path d="M2158 535 c-15 -58 -39 -132 -54 -165 -38 -86 -17 -130 23 -47 22 45
99 137 114 137 15 0 10 -28 -11 -70 -36 -71 -17 -126 35 -102 27 12 35 38 10
28 -28 -10 -27 21 1 84 21 47 25 66 17 79 -20 32 -49 24 -93 -26 -24 -26 -40
-39 -36 -28 49 135 61 207 36 212 -11 3 -22 -22 -42 -102z"/>
<path d="M837 599 c-25 -14 -10 -32 21 -24 24 6 25 5 19 -39 -9 -62 -63 -199
-87 -221 -13 -12 -17 -22 -11 -28 17 -17 59 20 86 73 14 28 27 50 29 50 2 0
19 -24 37 -52 49 -79 98 -128 129 -128 40 0 42 10 8 34 -38 25 -134 156 -121
165 105 71 144 122 123 161 -6 11 -20 20 -31 20 -15 0 -18 -5 -13 -24 3 -14
-1 -37 -10 -54 -16 -31 -103 -109 -111 -100 -3 3 2 37 12 76 14 58 14 73 4 86
-15 18 -57 20 -84 5z"/>
<path d="M1991 585 c-60 -51 -62 -120 -6 -187 35 -41 31 -82 -8 -86 -23 -3
-28 1 -33 27 -7 36 -19 39 -34 12 -12 -24 -4 -48 21 -61 30 -16 56 -11 89 17
27 22 31 32 27 58 -3 17 -17 49 -31 70 -40 59 -34 115 15 140 50 26 80 -4 54
-55 -8 -15 -20 -30 -27 -32 -17 -6 0 -28 21 -28 10 0 26 11 35 25 56 85 -44
166 -123 100z"/>
<path d="M1123 584 c-3 -8 2 -23 11 -32 15 -15 17 -15 32 0 21 21 11 48 -16
48 -11 0 -23 -7 -27 -16z"/>
<path d="M1099 493 c-1 -5 0 -18 1 -30 1 -12 -8 -43 -19 -69 -25 -57 -27 -102
-5 -111 19 -7 46 7 52 27 3 7 0 10 -7 6 -24 -15 -22 27 3 83 34 76 34 101 1
101 -14 0 -25 -3 -26 -7z"/>
<path d="M1199 493 c-1 -4 0 -19 0 -33 1 -14 -10 -54 -24 -89 -25 -61 -27 -91
-5 -91 5 0 19 19 30 43 25 53 97 137 117 137 11 0 13 -5 8 -17 -38 -88 -49
-131 -36 -147 16 -19 42 -21 59 -4 17 17 15 31 -3 25 -25 -10 -25 7 1 68 27
68 29 86 12 103 -21 21 -45 13 -81 -28 l-36 -39 2 37 c2 32 -1 37 -20 40 -13
2 -23 0 -24 -5z"/>
<path d="M1737 494 c-3 -3 -3 -13 0 -21 3 -8 -7 -46 -23 -84 -21 -53 -25 -75
-17 -87 19 -32 50 -25 94 20 36 37 41 39 35 18 -16 -55 -54 -116 -84 -135 -38
-24 -40 -35 -8 -35 27 0 75 49 105 108 28 55 81 209 74 216 -17 16 -35 1 -64
-55 -35 -66 -80 -119 -99 -119 -15 0 -9 29 20 96 13 29 20 59 17 68 -6 16 -38
22 -50 10z"/>
<path d="M2400 493 c-24 -9 -61 -45 -77 -76 -21 -41 -20 -107 3 -124 25 -18
39 -16 71 11 l27 24 11 -22 c14 -28 38 -31 61 -9 17 17 17 18 -4 21 -30 5 -28
32 5 110 28 66 25 84 -9 63 -14 -9 -23 -10 -31 -2 -12 12 -32 13 -57 4z m44
-85 c-23 -52 -61 -98 -80 -98 -21 0 -18 63 5 109 23 45 59 65 80 45 12 -11 12
-19 -5 -56z"/>
<path d="M2567 494 c-4 -4 -4 -17 -1 -28 3 -12 -7 -54 -21 -94 -25 -68 -26
-92 -5 -92 6 0 22 26 38 58 32 66 39 154 12 160 -9 1 -19 0 -23 -4z"/>
<path d="M2641 465 c-37 -42 -42 -68 -7 -35 14 12 32 20 40 17 18 -7 40 18 32
38 -9 24 -32 17 -65 -20z"/>
<path d="M2753 479 c-34 -21 -73 -90 -73 -128 0 -30 43 -71 75 -71 43 0 91 32
79 52 -3 4 -16 1 -29 -8 -32 -21 -69 -15 -73 12 -3 18 4 23 32 28 74 14 119
82 80 120 -21 22 -53 20 -91 -5z m63 -43 c-6 -23 -50 -56 -75 -56 -18 0 9 59
37 80 30 24 48 13 38 -24z"/>
<path d="M235 354 c30 -24 117 -63 156 -69 28 -4 25 -2 -16 13 -27 11 -75 31
-105 46 -30 15 -46 19 -35 10z"/>
</g>
</svg>
